<?xml version="1.0" encoding="UTF-8"?>
<svg xmlns="http://www.w3.org/2000/svg" xmlns:xlink="http://www.w3.org/1999/xlink" width="585pt" height="90pt" viewBox="0 0 585 90" version="1.1">
<g id="surface1-HbBoaRug">
<rect x="0" y="0" width="585" height="90" style="fill:rgb(100%,100%,100%);fill-opacity:1;stroke:none;"/>
<path style=" stroke:none;fill-rule:nonzero;fill:rgb(12.941177%,44.313726%,70.980394%);fill-opacity:1;" d="M 12 78 L 16.324219 78 L 16.324219 12 L 12 12 Z M 12 78 "/>
<path style=" stroke:none;fill-rule:nonzero;fill:rgb(87.058824%,92.156863%,96.862745%);fill-opacity:1;" d="M 15.574219 78 L 20.277344 78 L 20.277344 12 L 15.574219 12 Z M 15.574219 78 "/>
<path style=" stroke:none;fill-rule:nonzero;fill:rgb(61.960787%,79.215688%,88.235295%);fill-opacity:1;" d="M 19.527344 78 L 24.226562 78 L 24.226562 12 L 19.527344 12 Z M 19.527344 78 "/>
<path style=" stroke:none;fill-rule:nonzero;fill:rgb(100%,100%,100%);fill-opacity:1;" d="M 23.476562 78 L 28.175781 78 L 28.175781 12 L 23.476562 12 Z M 23.476562 78 "/>
<path style=" stroke:none;fill-rule:nonzero;fill:rgb(41.960785%,68.235296%,83.92157%);fill-opacity:1;" d="M 27.425781 78 L 32.128906 78 L 32.128906 12 L 27.425781 12 Z M 27.425781 78 "/>
<path style=" stroke:none;fill-rule:nonzero;fill:rgb(61.960787%,79.215688%,88.235295%);fill-opacity:1;" d="M 31.378906 78 L 36.078125 78 L 36.078125 12 L 31.378906 12 Z M 31.378906 78 "/>
<path style=" stroke:none;fill-rule:nonzero;fill:rgb(3.137255%,18.82353%,41.960785%);fill-opacity:1;" d="M 35.328125 78 L 40.03125 78 L 40.03125 12 L 35.328125 12 Z M 35.328125 78 "/>
<path style=" stroke:none;fill-rule:nonzero;fill:rgb(3.137255%,18.82353%,41.960785%);fill-opacity:1;" d="M 39.28125 78 L 43.980469 78 L 43.980469 12 L 39.28125 12 Z M 39.28125 78 "/>
<path style=" stroke:none;fill-rule:nonzero;fill:rgb(12.941177%,44.313726%,70.980394%);fill-opacity:1;" d="M 43.230469 78 L 47.929688 78 L 47.929688 12 L 43.230469 12 Z M 43.230469 78 "/>
<path style=" stroke:none;fill-rule:nonzero;fill:rgb(12.941177%,44.313726%,70.980394%);fill-opacity:1;" d="M 47.179688 78 L 51.882812 78 L 51.882812 12 L 47.179688 12 Z M 47.179688 78 "/>
<path style=" stroke:none;fill-rule:nonzero;fill:rgb(25.882354%,57.254905%,77.64706%);fill-opacity:1;" d="M 51.132812 78 L 55.832031 78 L 55.832031 12 L 51.132812 12 Z M 51.132812 78 "/>
<path style=" stroke:none;fill-rule:nonzero;fill:rgb(25.882354%,57.254905%,77.64706%);fill-opacity:1;" d="M 55.082031 78 L 59.78125 78 L 59.78125 12 L 55.082031 12 Z M 55.082031 78 "/>
<path style=" stroke:none;fill-rule:nonzero;fill:rgb(61.960787%,79.215688%,88.235295%);fill-opacity:1;" d="M 59.03125 78 L 63.734375 78 L 63.734375 12 L 59.03125 12 Z M 59.03125 78 "/>
<path style=" stroke:none;fill-rule:nonzero;fill:rgb(77.64706%,85.882354%,93.725491%);fill-opacity:1;" d="M 62.984375 78 L 67.683594 78 L 67.683594 12 L 62.984375 12 Z M 62.984375 78 "/>
<path style=" stroke:none;fill-rule:nonzero;fill:rgb(12.941177%,44.313726%,70.980394%);fill-opacity:1;" d="M 66.933594 78 L 71.636719 78 L 71.636719 12 L 66.933594 12 Z M 66.933594 78 "/>
<path style=" stroke:none;fill-rule:nonzero;fill:rgb(25.882354%,57.254905%,77.64706%);fill-opacity:1;" d="M 70.886719 78 L 75.585938 78 L 75.585938 12 L 70.886719 12 Z M 70.886719 78 "/>
<path style=" stroke:none;fill-rule:nonzero;fill:rgb(61.960787%,79.215688%,88.235295%);fill-opacity:1;" d="M 74.835938 78 L 79.535156 78 L 79.535156 12 L 74.835938 12 Z M 74.835938 78 "/>
<path style=" stroke:none;fill-rule:nonzero;fill:rgb(100%,100%,100%);fill-opacity:1;" d="M 78.785156 78 L 83.488281 78 L 83.488281 12 L 78.785156 12 Z M 78.785156 78 "/>
<path style=" stroke:none;fill-rule:nonzero;fill:rgb(77.64706%,85.882354%,93.725491%);fill-opacity:1;" d="M 82.738281 78 L 87.4375 78 L 87.4375 12 L 82.738281 12 Z M 82.738281 78 "/>
<path style=" stroke:none;fill-rule:nonzero;fill:rgb(87.058824%,92.156863%,96.862745%);fill-opacity:1;" d="M 86.6875 78 L 91.390625 78 L 91.390625 12 L 86.6875 12 Z M 86.6875 78 "/>
<path style=" stroke:none;fill-rule:nonzero;fill:rgb(41.960785%,68.235296%,83.92157%);fill-opacity:1;" d="M 90.640625 78 L 95.339844 78 L 95.339844 12 L 90.640625 12 Z M 90.640625 78 "/>
<path style=" stroke:none;fill-rule:nonzero;fill:rgb(3.137255%,31.764707%,61.176473%);fill-opacity:1;" d="M 94.589844 78 L 99.289062 78 L 99.289062 12 L 94.589844 12 Z M 94.589844 78 "/>
<path style=" stroke:none;fill-rule:nonzero;fill:rgb(87.058824%,92.156863%,96.862745%);fill-opacity:1;" d="M 98.539062 78 L 103.242188 78 L 103.242188 12 L 98.539062 12 Z M 98.539062 78 "/>
<path style=" stroke:none;fill-rule:nonzero;fill:rgb(87.058824%,92.156863%,96.862745%);fill-opacity:1;" d="M 102.492188 78 L 107.191406 78 L 107.191406 12 L 102.492188 12 Z M 102.492188 78 "/>
<path style=" stroke:none;fill-rule:nonzero;fill:rgb(61.960787%,79.215688%,88.235295%);fill-opacity:1;" d="M 106.441406 78 L 111.140625 78 L 111.140625 12 L 106.441406 12 Z M 106.441406 78 "/>
<path style=" stroke:none;fill-rule:nonzero;fill:rgb(87.058824%,92.156863%,96.862745%);fill-opacity:1;" d="M 110.390625 78 L 115.09375 78 L 115.09375 12 L 110.390625 12 Z M 110.390625 78 "/>
<path style=" stroke:none;fill-rule:nonzero;fill:rgb(41.960785%,68.235296%,83.92157%);fill-opacity:1;" d="M 114.34375 78 L 119.042969 78 L 119.042969 12 L 114.34375 12 Z M 114.34375 78 "/>
<path style=" stroke:none;fill-rule:nonzero;fill:rgb(25.882354%,57.254905%,77.64706%);fill-opacity:1;" d="M 118.292969 78 L 122.996094 78 L 122.996094 12 L 118.292969 12 Z M 118.292969 78 "/>
<path style=" stroke:none;fill-rule:nonzero;fill:rgb(12.941177%,44.313726%,70.980394%);fill-opacity:1;" d="M 122.246094 78 L 126.945312 78 L 126.945312 12 L 122.246094 12 Z M 122.246094 78 "/>
<path style=" stroke:none;fill-rule:nonzero;fill:rgb(87.058824%,92.156863%,96.862745%);fill-opacity:1;" d="M 126.195312 78 L 130.894531 78 L 130.894531 12 L 126.195312 12 Z M 126.195312 78 "/>
<path style=" stroke:none;fill-rule:nonzero;fill:rgb(98.823529%,73.333335%,63.137257%);fill-opacity:1;" d="M 130.144531 78 L 134.847656 78 L 134.847656 12 L 130.144531 12 Z M 130.144531 78 "/>
<path style=" stroke:none;fill-rule:nonzero;fill:rgb(61.960787%,79.215688%,88.235295%);fill-opacity:1;" d="M 134.097656 78 L 138.796875 78 L 138.796875 12 L 134.097656 12 Z M 134.097656 78 "/>
<path style=" stroke:none;fill-rule:nonzero;fill:rgb(100%,100%,100%);fill-opacity:1;" d="M 138.046875 78 L 142.75 78 L 142.75 12 L 138.046875 12 Z M 138.046875 78 "/>
<path style=" stroke:none;fill-rule:nonzero;fill:rgb(100%,100%,100%);fill-opacity:1;" d="M 142 78 L 146.699219 78 L 146.699219 12 L 142 12 Z M 142 78 "/>
<path style=" stroke:none;fill-rule:nonzero;fill:rgb(61.960787%,79.215688%,88.235295%);fill-opacity:1;" d="M 145.949219 78 L 150.648438 78 L 150.648438 12 L 145.949219 12 Z M 145.949219 78 "/>
<path style=" stroke:none;fill-rule:nonzero;fill:rgb(87.058824%,92.156863%,96.862745%);fill-opacity:1;" d="M 149.898438 78 L 154.601562 78 L 154.601562 12 L 149.898438 12 Z M 149.898438 78 "/>
<path style=" stroke:none;fill-rule:nonzero;fill:rgb(25.882354%,57.254905%,77.64706%);fill-opacity:1;" d="M 153.851562 78 L 158.550781 78 L 158.550781 12 L 153.851562 12 Z M 153.851562 78 "/>
<path style=" stroke:none;fill-rule:nonzero;fill:rgb(100%,100%,100%);fill-opacity:1;" d="M 157.800781 78 L 162.5 78 L 162.5 12 L 157.800781 12 Z M 157.800781 78 "/>
<path style=" stroke:none;fill-rule:nonzero;fill:rgb(12.941177%,44.313726%,70.980394%);fill-opacity:1;" d="M 161.75 78 L 166.453125 78 L 166.453125 12 L 161.75 12 Z M 161.75 78 "/>
<path style=" stroke:none;fill-rule:nonzero;fill:rgb(100%,100%,100%);fill-opacity:1;" d="M 165.703125 78 L 170.402344 78 L 170.402344 12 L 165.703125 12 Z M 165.703125 78 "/>
<path style=" stroke:none;fill-rule:nonzero;fill:rgb(98.823529%,73.333335%,63.137257%);fill-opacity:1;" d="M 169.652344 78 L 174.351562 78 L 174.351562 12 L 169.652344 12 Z M 169.652344 78 "/>
<path style=" stroke:none;fill-rule:nonzero;fill:rgb(7.933605%,37.904033%,65.972823%);fill-opacity:1;" d="M 173.601562 78 L 178.304688 78 L 178.304688 12 L 173.601562 12 Z M 173.601562 78 "/>
<path style=" stroke:none;fill-rule:nonzero;fill:rgb(61.960787%,79.215688%,88.235295%);fill-opacity:1;" d="M 177.554688 78 L 182.253906 78 L 182.253906 12 L 177.554688 12 Z M 177.554688 78 "/>
<path style=" stroke:none;fill-rule:nonzero;fill:rgb(25.882354%,57.254905%,77.64706%);fill-opacity:1;" d="M 181.503906 78 L 186.207031 78 L 186.207031 12 L 181.503906 12 Z M 181.503906 78 "/>
<path style=" stroke:none;fill-rule:nonzero;fill:rgb(87.058824%,92.156863%,96.862745%);fill-opacity:1;" d="M 185.457031 78 L 190.15625 78 L 190.15625 12 L 185.457031 12 Z M 185.457031 78 "/>
<path style=" stroke:none;fill-rule:nonzero;fill:rgb(99.607843%,87.843138%,82.352942%);fill-opacity:1;" d="M 189.40625 78 L 194.105469 78 L 194.105469 12 L 189.40625 12 Z M 189.40625 78 "/>
<path style=" stroke:none;fill-rule:nonzero;fill:rgb(74.905044%,84.716994%,92.765784%);fill-opacity:1;" d="M 193.355469 78 L 198.058594 78 L 198.058594 12 L 193.355469 12 Z M 193.355469 78 "/>
<path style=" stroke:none;fill-rule:nonzero;fill:rgb(87.058824%,92.156863%,96.862745%);fill-opacity:1;" d="M 197.308594 78 L 202.007812 78 L 202.007812 12 L 197.308594 12 Z M 197.308594 78 "/>
<path style=" stroke:none;fill-rule:nonzero;fill:rgb(12.941177%,44.313726%,70.980394%);fill-opacity:1;" d="M 201.257812 78 L 205.960938 78 L 205.960938 12 L 201.257812 12 Z M 201.257812 78 "/>
<path style=" stroke:none;fill-rule:nonzero;fill:rgb(99.607843%,87.843138%,82.352942%);fill-opacity:1;" d="M 205.210938 78 L 209.910156 78 L 209.910156 12 L 205.210938 12 Z M 205.210938 78 "/>
<path style=" stroke:none;fill-rule:nonzero;fill:rgb(25.882354%,57.254905%,77.64706%);fill-opacity:1;" d="M 209.160156 78 L 213.859375 78 L 213.859375 12 L 209.160156 12 Z M 209.160156 78 "/>
<path style=" stroke:none;fill-rule:nonzero;fill:rgb(87.058824%,92.156863%,96.862745%);fill-opacity:1;" d="M 213.109375 78 L 217.8125 78 L 217.8125 12 L 213.109375 12 Z M 213.109375 78 "/>
<path style=" stroke:none;fill-rule:nonzero;fill:rgb(41.960785%,68.235296%,83.92157%);fill-opacity:1;" d="M 217.0625 78 L 221.761719 78 L 221.761719 12 L 217.0625 12 Z M 217.0625 78 "/>
<path style=" stroke:none;fill-rule:nonzero;fill:rgb(93.725491%,23.137255%,17.254902%);fill-opacity:1;" d="M 221.011719 78 L 225.714844 78 L 225.714844 12 L 221.011719 12 Z M 221.011719 78 "/>
<path style=" stroke:none;fill-rule:nonzero;fill:rgb(87.058824%,92.156863%,96.862745%);fill-opacity:1;" d="M 224.964844 78 L 229.664062 78 L 229.664062 12 L 224.964844 12 Z M 224.964844 78 "/>
<path style=" stroke:none;fill-rule:nonzero;fill:rgb(87.058824%,92.156863%,96.862745%);fill-opacity:1;" d="M 228.914062 78 L 233.613281 78 L 233.613281 12 L 228.914062 12 Z M 228.914062 78 "/>
<path style=" stroke:none;fill-rule:nonzero;fill:rgb(100%,100%,100%);fill-opacity:1;" d="M 232.863281 78 L 237.566406 78 L 237.566406 12 L 232.863281 12 Z M 232.863281 78 "/>
<path style=" stroke:none;fill-rule:nonzero;fill:rgb(100%,100%,100%);fill-opacity:1;" d="M 236.816406 78 L 241.515625 78 L 241.515625 12 L 236.816406 12 Z M 236.816406 78 "/>
<path style=" stroke:none;fill-rule:nonzero;fill:rgb(87.058824%,92.156863%,96.862745%);fill-opacity:1;" d="M 240.765625 78 L 245.464844 78 L 245.464844 12 L 240.765625 12 Z M 240.765625 78 "/>
<path style=" stroke:none;fill-rule:nonzero;fill:rgb(3.137255%,18.82353%,41.960785%);fill-opacity:1;" d="M 244.714844 78 L 249.417969 78 L 249.417969 12 L 244.714844 12 Z M 244.714844 78 "/>
<path style=" stroke:none;fill-rule:nonzero;fill:rgb(3.137255%,31.764707%,61.176473%);fill-opacity:1;" d="M 248.667969 78 L 253.367188 78 L 253.367188 12 L 248.667969 12 Z M 248.667969 78 "/>
<path style=" stroke:none;fill-rule:nonzero;fill:rgb(12.941177%,44.313726%,70.980394%);fill-opacity:1;" d="M 252.617188 78 L 257.316406 78 L 257.316406 12 L 252.617188 12 Z M 252.617188 78 "/>
<path style=" stroke:none;fill-rule:nonzero;fill:rgb(99.253857%,81.294417%,73.680311%);fill-opacity:1;" d="M 256.566406 78 L 261.269531 78 L 261.269531 12 L 256.566406 12 Z M 256.566406 78 "/>
<path style=" stroke:none;fill-rule:nonzero;fill:rgb(87.058824%,92.156863%,96.862745%);fill-opacity:1;" d="M 260.519531 78 L 265.21875 78 L 265.21875 12 L 260.519531 12 Z M 260.519531 78 "/>
<path style=" stroke:none;fill-rule:nonzero;fill:rgb(98.823529%,73.333335%,63.137257%);fill-opacity:1;" d="M 264.46875 78 L 269.171875 78 L 269.171875 12 L 264.46875 12 Z M 264.46875 78 "/>
<path style=" stroke:none;fill-rule:nonzero;fill:rgb(87.058824%,92.156863%,96.862745%);fill-opacity:1;" d="M 268.421875 78 L 273.121094 78 L 273.121094 12 L 268.421875 12 Z M 268.421875 78 "/>
<path style=" stroke:none;fill-rule:nonzero;fill:rgb(100%,100%,100%);fill-opacity:1;" d="M 272.371094 78 L 277.070312 78 L 277.070312 12 L 272.371094 12 Z M 272.371094 78 "/>
<path style=" stroke:none;fill-rule:nonzero;fill:rgb(98.823529%,73.333335%,63.137257%);fill-opacity:1;" d="M 276.320312 78 L 281.023438 78 L 281.023438 12 L 276.320312 12 Z M 276.320312 78 "/>
<path style=" stroke:none;fill-rule:nonzero;fill:rgb(98.823529%,57.254905%,44.705883%);fill-opacity:1;" d="M 280.273438 78 L 284.972656 78 L 284.972656 12 L 280.273438 12 Z M 280.273438 78 "/>
<path style=" stroke:none;fill-rule:nonzero;fill:rgb(100%,100%,100%);fill-opacity:1;" d="M 284.222656 78 L 288.925781 78 L 288.925781 12 L 284.222656 12 Z M 284.222656 78 "/>
<path style=" stroke:none;fill-rule:nonzero;fill:rgb(99.607843%,87.843138%,82.352942%);fill-opacity:1;" d="M 288.175781 78 L 292.875 78 L 292.875 12 L 288.175781 12 Z M 288.175781 78 "/>
<path style=" stroke:none;fill-rule:nonzero;fill:rgb(61.960787%,79.215688%,88.235295%);fill-opacity:1;" d="M 292.125 78 L 296.824219 78 L 296.824219 12 L 292.125 12 Z M 292.125 78 "/>
<path style=" stroke:none;fill-rule:nonzero;fill:rgb(98.823529%,73.333335%,63.137257%);fill-opacity:1;" d="M 296.074219 78 L 300.777344 78 L 300.777344 12 L 296.074219 12 Z M 296.074219 78 "/>
<path style=" stroke:none;fill-rule:nonzero;fill:rgb(41.960785%,68.235296%,83.92157%);fill-opacity:1;" d="M 300.027344 78 L 304.726562 78 L 304.726562 12 L 300.027344 12 Z M 300.027344 78 "/>
<path style=" stroke:none;fill-rule:nonzero;fill:rgb(25.882354%,57.254905%,77.64706%);fill-opacity:1;" d="M 303.976562 78 L 308.675781 78 L 308.675781 12 L 303.976562 12 Z M 303.976562 78 "/>
<path style=" stroke:none;fill-rule:nonzero;fill:rgb(3.137255%,18.82353%,41.960785%);fill-opacity:1;" d="M 307.925781 78 L 312.628906 78 L 312.628906 12 L 307.925781 12 Z M 307.925781 78 "/>
<path style=" stroke:none;fill-rule:nonzero;fill:rgb(100%,100%,100%);fill-opacity:1;" d="M 311.878906 78 L 316.578125 78 L 316.578125 12 L 311.878906 12 Z M 311.878906 78 "/>
<path style=" stroke:none;fill-rule:nonzero;fill:rgb(77.64706%,85.882354%,93.725491%);fill-opacity:1;" d="M 315.828125 78 L 320.53125 78 L 320.53125 12 L 315.828125 12 Z M 315.828125 78 "/>
<path style=" stroke:none;fill-rule:nonzero;fill:rgb(98.823529%,73.333335%,63.137257%);fill-opacity:1;" d="M 319.78125 78 L 324.480469 78 L 324.480469 12 L 319.78125 12 Z M 319.78125 78 "/>
<path style=" stroke:none;fill-rule:nonzero;fill:rgb(87.058824%,92.156863%,96.862745%);fill-opacity:1;" d="M 323.730469 78 L 328.429688 78 L 328.429688 12 L 323.730469 12 Z M 323.730469 78 "/>
<path style=" stroke:none;fill-rule:nonzero;fill:rgb(98.823529%,73.333335%,63.137257%);fill-opacity:1;" d="M 327.679688 78 L 332.382812 78 L 332.382812 12 L 327.679688 12 Z M 327.679688 78 "/>
<path style=" stroke:none;fill-rule:nonzero;fill:rgb(3.137255%,31.764707%,61.176473%);fill-opacity:1;" d="M 331.632812 78 L 336.332031 78 L 336.332031 12 L 331.632812 12 Z M 331.632812 78 "/>
<path style=" stroke:none;fill-rule:nonzero;fill:rgb(3.137255%,31.764707%,61.176473%);fill-opacity:1;" d="M 335.582031 78 L 340.28125 78 L 340.28125 12 L 335.582031 12 Z M 335.582031 78 "/>
<path style=" stroke:none;fill-rule:nonzero;fill:rgb(77.64706%,85.882354%,93.725491%);fill-opacity:1;" d="M 339.53125 78 L 344.234375 78 L 344.234375 12 L 339.53125 12 Z M 339.53125 78 "/>
<path style=" stroke:none;fill-rule:nonzero;fill:rgb(25.882354%,57.254905%,77.64706%);fill-opacity:1;" d="M 343.484375 78 L 348.183594 78 L 348.183594 12 L 343.484375 12 Z M 343.484375 78 "/>
<path style=" stroke:none;fill-rule:nonzero;fill:rgb(100%,100%,100%);fill-opacity:1;" d="M 347.433594 78 L 352.136719 78 L 352.136719 12 L 347.433594 12 Z M 347.433594 78 "/>
<path style=" stroke:none;fill-rule:nonzero;fill:rgb(98.823529%,73.333335%,63.137257%);fill-opacity:1;" d="M 351.386719 78 L 356.085938 78 L 356.085938 12 L 351.386719 12 Z M 351.386719 78 "/>
<path style=" stroke:none;fill-rule:nonzero;fill:rgb(77.64706%,85.882354%,93.725491%);fill-opacity:1;" d="M 355.335938 78 L 360.035156 78 L 360.035156 12 L 355.335938 12 Z M 355.335938 78 "/>
<path style=" stroke:none;fill-rule:nonzero;fill:rgb(41.960785%,68.235296%,83.92157%);fill-opacity:1;" d="M 359.285156 78 L 363.988281 78 L 363.988281 12 L 359.285156 12 Z M 359.285156 78 "/>
<path style=" stroke:none;fill-rule:nonzero;fill:rgb(41.960785%,68.235296%,83.92157%);fill-opacity:1;" d="M 363.238281 78 L 367.9375 78 L 367.9375 12 L 363.238281 12 Z M 363.238281 78 "/>
<path style=" stroke:none;fill-rule:nonzero;fill:rgb(87.058824%,92.156863%,96.862745%);fill-opacity:1;" d="M 367.1875 78 L 371.890625 78 L 371.890625 12 L 367.1875 12 Z M 367.1875 78 "/>
<path style=" stroke:none;fill-rule:nonzero;fill:rgb(46.137279%,70.528275%,84.822381%);fill-opacity:1;" d="M 371.140625 78 L 375.839844 78 L 375.839844 12 L 371.140625 12 Z M 371.140625 78 "/>
<path style=" stroke:none;fill-rule:nonzero;fill:rgb(77.64706%,85.882354%,93.725491%);fill-opacity:1;" d="M 375.089844 78 L 379.789062 78 L 379.789062 12 L 375.089844 12 Z M 375.089844 78 "/>
<path style=" stroke:none;fill-rule:nonzero;fill:rgb(99.607843%,87.843138%,82.352942%);fill-opacity:1;" d="M 379.039062 78 L 383.742188 78 L 383.742188 12 L 379.039062 12 Z M 379.039062 78 "/>
<path style=" stroke:none;fill-rule:nonzero;fill:rgb(98.823529%,73.333335%,63.137257%);fill-opacity:1;" d="M 382.992188 78 L 387.691406 78 L 387.691406 12 L 382.992188 12 Z M 382.992188 78 "/>
<path style=" stroke:none;fill-rule:nonzero;fill:rgb(100%,100%,100%);fill-opacity:1;" d="M 386.941406 78 L 391.640625 78 L 391.640625 12 L 386.941406 12 Z M 386.941406 78 "/>
<path style=" stroke:none;fill-rule:nonzero;fill:rgb(99.786359%,93.377042%,90.386033%);fill-opacity:1;" d="M 390.890625 78 L 395.59375 78 L 395.59375 12 L 390.890625 12 Z M 390.890625 78 "/>
<path style=" stroke:none;fill-rule:nonzero;fill:rgb(41.960785%,68.235296%,83.92157%);fill-opacity:1;" d="M 394.84375 78 L 399.542969 78 L 399.542969 12 L 394.84375 12 Z M 394.84375 78 "/>
<path style=" stroke:none;fill-rule:nonzero;fill:rgb(41.960785%,68.235296%,83.92157%);fill-opacity:1;" d="M 398.792969 78 L 403.496094 78 L 403.496094 12 L 398.792969 12 Z M 398.792969 78 "/>
<path style=" stroke:none;fill-rule:nonzero;fill:rgb(41.960785%,68.235296%,83.92157%);fill-opacity:1;" d="M 402.746094 78 L 407.445312 78 L 407.445312 12 L 402.746094 12 Z M 402.746094 78 "/>
<path style=" stroke:none;fill-rule:nonzero;fill:rgb(77.64706%,85.882354%,93.725491%);fill-opacity:1;" d="M 406.695312 78 L 411.394531 78 L 411.394531 12 L 406.695312 12 Z M 406.695312 78 "/>
<path style=" stroke:none;fill-rule:nonzero;fill:rgb(98.823529%,73.333335%,63.137257%);fill-opacity:1;" d="M 410.644531 78 L 415.347656 78 L 415.347656 12 L 410.644531 12 Z M 410.644531 78 "/>
<path style=" stroke:none;fill-rule:nonzero;fill:rgb(98.823529%,73.333335%,63.137257%);fill-opacity:1;" d="M 414.597656 78 L 419.296875 78 L 419.296875 12 L 414.597656 12 Z M 414.597656 78 "/>
<path style=" stroke:none;fill-rule:nonzero;fill:rgb(61.960787%,79.215688%,88.235295%);fill-opacity:1;" d="M 418.546875 78 L 423.25 78 L 423.25 12 L 418.546875 12 Z M 418.546875 78 "/>
<path style=" stroke:none;fill-rule:nonzero;fill:rgb(25.882354%,57.254905%,77.64706%);fill-opacity:1;" d="M 422.5 78 L 427.199219 78 L 427.199219 12 L 422.5 12 Z M 422.5 78 "/>
<path style=" stroke:none;fill-rule:nonzero;fill:rgb(61.960787%,79.215688%,88.235295%);fill-opacity:1;" d="M 426.449219 78 L 431.148438 78 L 431.148438 12 L 426.449219 12 Z M 426.449219 78 "/>
<path style=" stroke:none;fill-rule:nonzero;fill:rgb(25.882354%,57.254905%,77.64706%);fill-opacity:1;" d="M 430.398438 78 L 435.101562 78 L 435.101562 12 L 430.398438 12 Z M 430.398438 78 "/>
<path style=" stroke:none;fill-rule:nonzero;fill:rgb(98.823529%,73.333335%,63.137257%);fill-opacity:1;" d="M 434.351562 78 L 439.050781 78 L 439.050781 12 L 434.351562 12 Z M 434.351562 78 "/>
<path style=" stroke:none;fill-rule:nonzero;fill:rgb(98.431373%,41.568628%,29.019609%);fill-opacity:1;" d="M 438.300781 78 L 443 78 L 443 12 L 438.300781 12 Z M 438.300781 78 "/>
<path style=" stroke:none;fill-rule:nonzero;fill:rgb(98.431373%,41.568628%,29.019609%);fill-opacity:1;" d="M 442.25 78 L 446.953125 78 L 446.953125 12 L 442.25 12 Z M 442.25 78 "/>
<path style=" stroke:none;fill-rule:nonzero;fill:rgb(87.058824%,92.156863%,96.862745%);fill-opacity:1;" d="M 446.203125 78 L 450.902344 78 L 450.902344 12 L 446.203125 12 Z M 446.203125 78 "/>
<path style=" stroke:none;fill-rule:nonzero;fill:rgb(98.431373%,41.568628%,29.019609%);fill-opacity:1;" d="M 450.152344 78 L 454.851562 78 L 454.851562 12 L 450.152344 12 Z M 450.152344 78 "/>
<path style=" stroke:none;fill-rule:nonzero;fill:rgb(100%,100%,100%);fill-opacity:1;" d="M 454.101562 78 L 458.804688 78 L 458.804688 12 L 454.101562 12 Z M 454.101562 78 "/>
<path style=" stroke:none;fill-rule:nonzero;fill:rgb(93.725491%,23.137255%,17.254902%);fill-opacity:1;" d="M 458.054688 78 L 462.753906 78 L 462.753906 12 L 458.054688 12 Z M 458.054688 78 "/>
<path style=" stroke:none;fill-rule:nonzero;fill:rgb(98.823529%,73.333335%,63.137257%);fill-opacity:1;" d="M 462.003906 78 L 466.707031 78 L 466.707031 12 L 462.003906 12 Z M 462.003906 78 "/>
<path style=" stroke:none;fill-rule:nonzero;fill:rgb(12.941177%,44.313726%,70.980394%);fill-opacity:1;" d="M 465.957031 78 L 470.65625 78 L 470.65625 12 L 465.957031 12 Z M 465.957031 78 "/>
<path style=" stroke:none;fill-rule:nonzero;fill:rgb(98.823529%,73.333335%,63.137257%);fill-opacity:1;" d="M 469.90625 78 L 474.605469 78 L 474.605469 12 L 469.90625 12 Z M 469.90625 78 "/>
<path style=" stroke:none;fill-rule:nonzero;fill:rgb(98.823529%,73.333335%,63.137257%);fill-opacity:1;" d="M 473.855469 78 L 478.558594 78 L 478.558594 12 L 473.855469 12 Z M 473.855469 78 "/>
<path style=" stroke:none;fill-rule:nonzero;fill:rgb(98.431373%,41.568628%,29.019609%);fill-opacity:1;" d="M 477.808594 78 L 482.507812 78 L 482.507812 12 L 477.808594 12 Z M 477.808594 78 "/>
<path style=" stroke:none;fill-rule:nonzero;fill:rgb(79.607844%,9.411765%,11.372549%);fill-opacity:1;" d="M 481.757812 78 L 486.460938 78 L 486.460938 12 L 481.757812 12 Z M 481.757812 78 "/>
<path style=" stroke:none;fill-rule:nonzero;fill:rgb(98.823529%,73.333335%,63.137257%);fill-opacity:1;" d="M 485.710938 78 L 490.410156 78 L 490.410156 12 L 485.710938 12 Z M 485.710938 78 "/>
<path style=" stroke:none;fill-rule:nonzero;fill:rgb(93.725491%,23.137255%,17.254902%);fill-opacity:1;" d="M 489.660156 78 L 494.359375 78 L 494.359375 12 L 489.660156 12 Z M 489.660156 78 "/>
<path style=" stroke:none;fill-rule:nonzero;fill:rgb(98.431373%,41.568628%,29.019609%);fill-opacity:1;" d="M 493.609375 78 L 498.3125 78 L 498.3125 12 L 493.609375 12 Z M 493.609375 78 "/>
<path style=" stroke:none;fill-rule:nonzero;fill:rgb(98.823529%,73.333335%,63.137257%);fill-opacity:1;" d="M 497.5625 78 L 502.261719 78 L 502.261719 12 L 497.5625 12 Z M 497.5625 78 "/>
<path style=" stroke:none;fill-rule:nonzero;fill:rgb(98.823529%,73.333335%,63.137257%);fill-opacity:1;" d="M 501.511719 78 L 506.210938 78 L 506.210938 12 L 501.511719 12 Z M 501.511719 78 "/>
<path style=" stroke:none;fill-rule:nonzero;fill:rgb(93.725491%,23.137255%,17.254902%);fill-opacity:1;" d="M 505.460938 78 L 510.164062 78 L 510.164062 12 L 505.460938 12 Z M 505.460938 78 "/>
<path style=" stroke:none;fill-rule:nonzero;fill:rgb(79.607844%,9.411765%,11.372549%);fill-opacity:1;" d="M 509.414062 78 L 514.113281 78 L 514.113281 12 L 509.414062 12 Z M 509.414062 78 "/>
<path style=" stroke:none;fill-rule:nonzero;fill:rgb(98.431373%,41.568628%,29.019609%);fill-opacity:1;" d="M 513.363281 78 L 518.066406 78 L 518.066406 12 L 513.363281 12 Z M 513.363281 78 "/>
<path style=" stroke:none;fill-rule:nonzero;fill:rgb(98.823529%,57.254905%,44.705883%);fill-opacity:1;" d="M 517.316406 78 L 522.015625 78 L 522.015625 12 L 517.316406 12 Z M 517.316406 78 "/>
<path style=" stroke:none;fill-rule:nonzero;fill:rgb(61.960787%,79.215688%,88.235295%);fill-opacity:1;" d="M 521.265625 78 L 525.964844 78 L 525.964844 12 L 521.265625 12 Z M 521.265625 78 "/>
<path style=" stroke:none;fill-rule:nonzero;fill:rgb(93.725491%,23.137255%,17.254902%);fill-opacity:1;" d="M 525.214844 78 L 529.917969 78 L 529.917969 12 L 525.214844 12 Z M 525.214844 78 "/>
<path style=" stroke:none;fill-rule:nonzero;fill:rgb(98.823529%,67.579347%,56.541216%);fill-opacity:1;" d="M 529.167969 78 L 533.867188 78 L 533.867188 12 L 529.167969 12 Z M 529.167969 78 "/>
<path style=" stroke:none;fill-rule:nonzero;fill:rgb(99.607843%,87.843138%,82.352942%);fill-opacity:1;" d="M 533.117188 78 L 537.816406 78 L 537.816406 12 L 533.117188 12 Z M 533.117188 78 "/>
<path style=" stroke:none;fill-rule:nonzero;fill:rgb(40.392157%,0%,5.098039%);fill-opacity:1;" d="M 537.066406 78 L 541.769531 78 L 541.769531 12 L 537.066406 12 Z M 537.066406 78 "/>
<path style=" stroke:none;fill-rule:nonzero;fill:rgb(69.268429%,6.962955%,9.19583%);fill-opacity:1;" d="M 541.019531 78 L 545.71875 78 L 545.71875 12 L 541.019531 12 Z M 541.019531 78 "/>
<path style=" stroke:none;fill-rule:nonzero;fill:rgb(93.725491%,23.137255%,17.254902%);fill-opacity:1;" d="M 544.96875 78 L 549.671875 78 L 549.671875 12 L 544.96875 12 Z M 544.96875 78 "/>
<path style=" stroke:none;fill-rule:nonzero;fill:rgb(93.725491%,23.137255%,17.254902%);fill-opacity:1;" d="M 548.921875 78 L 553.621094 78 L 553.621094 12 L 548.921875 12 Z M 548.921875 78 "/>
<path style=" stroke:none;fill-rule:nonzero;fill:rgb(40.392157%,0%,5.098039%);fill-opacity:1;" d="M 552.871094 78 L 557.570312 78 L 557.570312 12 L 552.871094 12 Z M 552.871094 78 "/>
<path style=" stroke:none;fill-rule:nonzero;fill:rgb(40.392157%,0%,5.098039%);fill-opacity:1;" d="M 556.820312 78 L 561.523438 78 L 561.523438 12 L 556.820312 12 Z M 556.820312 78 "/>
<path style=" stroke:none;fill-rule:nonzero;fill:rgb(40.392157%,0%,5.098039%);fill-opacity:1;" d="M 560.773438 78 L 565.472656 78 L 565.472656 12 L 560.773438 12 Z M 560.773438 78 "/>
<path style=" stroke:none;fill-rule:nonzero;fill:rgb(98.823529%,57.254905%,44.705883%);fill-opacity:1;" d="M 564.722656 78 L 569.425781 78 L 569.425781 12 L 564.722656 12 Z M 564.722656 78 "/>
<path style=" stroke:none;fill-rule:nonzero;fill:rgb(40.392157%,0%,5.098039%);fill-opacity:1;" d="M 568.675781 78 L 573 78 L 573 12 L 568.675781 12 Z M 568.675781 78 "/>
</g>
</svg>
